PathFileType	4	(X/Y/Z)	C:/Users/opensim2020/Desktop/walking_exp_matlab/subject01_walking11_straight_02.trc	
DataRate	CameraRate	NumFrames	NumMarkers	Units	OrigDataRate	OrigDataStartFrame	OrigNumFrames	
100.00	100.00	7	44	mm	100.00	2140	266	
Frame#	Time	LFHD			RFHD			LBHD			RBHD			C7			T10			CLAV			STRN			RBAK			LSHO			LUPA			LELB			LFRM			LWRA			LWRB			LFIN			RSHO			RUPA			RELB			RFRM			RWRA			RWRB			RFIN			LASI			RASI			LPSI			RPSI			LTHI			LKNE			LTIB			LANK			LHEE			LTOE			RTHI			RKNE			RTIB			RANK			RHEE			RTOE			*39			*40			*41			*42			*43			
		X1	Y1	Z1	X2	Y2	Z2	X3	Y3	Z3	X4	Y4	Z4	X5	Y5	Z5	X6	Y6	Z6	X7	Y7	Z7	X8	Y8	Z8	X9	Y9	Z9	X10	Y10	Z10	X11	Y11	Z11	X12	Y12	Z12	X13	Y13	Z13	X14	Y14	Z14	X15	Y15	Z15	X16	Y16	Z16	X17	Y17	Z17	X18	Y18	Z18	X19	Y19	Z19	X20	Y20	Z20	X21	Y21	Z21	X22	Y22	Z22	X23	Y23	Z23	X24	Y24	Z24	X25	Y25	Z25	X26	Y26	Z26	X27	Y27	Z27	X28	Y28	Z28	X29	Y29	Z29	X30	Y30	Z30	X31	Y31	Z31	X32	Y32	Z32	X33	Y33	Z33	X34	Y34	Z34	X35	Y35	Z35	X36	Y36	Z36	X37	Y37	Z37	X38	Y38	Z38	X39	Y39	Z39	X40	Y40	Z40	X41	Y41	Z41	X42	Y42	Z42	X43	Y43	Z43	X44	Y44	Z44	

200	1.990	-1022.31036	-540.46344	1661.87256	-1126.77515	-586.92609	1661.08313	-1067.68262	-424.76947	1638.13232	-1178.27661	-472.15244	1637.57983	-1100.71387	-370.46799	1436.39026	-1104.52307	-328.17752	1142.59204	-1088.17834	-512.29865	1365.96704	-1077.42371	-553.14215	1210.90112	-1179.85522	-317.60751	1239.95215	-933.00403	-438.51764	1402.69287	-850.17316	-393.39209	1220.66028	-852.12775	-373.19247	1070.81580	-820.83130	-402.49146	962.35150	-830.13861	-475.58926	841.79688	-808.85358	-419.26300	841.41217	-795.77307	-462.56638	767.83142	-1243.26880	-457.55676	1393.85754	-1348.93640	-410.52380	1193.79797	-1354.13586	-418.47583	1069.07996	-1386.83423	-459.62769	956.28290	-1370.27148	-554.29456	850.63745	-1409.38599	-510.50165	846.40485	-1406.59558	-557.05255	772.68323	-982.37231	-488.72070	933.92633	-1198.55579	-504.17297	932.83844	-1043.87988	-307.35629	945.95123	-1188.68945	-317.18365	950.97961	-914.87994	-539.07001	617.63800	-929.08533	-560.39886	484.98688	-925.38477	-475.53854	317.05145	-977.80444	-410.16452	108.88731	-1040.44873	-374.16724	79.12499	-939.46539	-534.88672	54.52031	-1242.80603	-449.81757	598.68213	-1211.11182	-456.84125	440.65250	-1214.43359	-394.91278	274.12903	-1156.20105	-354.39679	74.53928	-1107.66565	-301.80206	40.09223	-1148.22437	-493.83121	33.30970	-1107.97046	-575.90906	1697.15381	-3102.49927	1972.94153	1024.12891	-3138.34985	2013.09924	1022.18005						 
201	2.000	-1021.68365	-547.34412	1661.66479	-1125.90955	-594.10883	1661.00244	-1067.42444	-431.76587	1637.99475	-1177.82324	-479.47177	1637.58228	-1100.83008	-377.45712	1436.37927	-1104.95862	-334.90881	1142.62244	-1088.11133	-519.34540	1365.83679	-1077.52686	-559.98798	1210.71021	-1180.37073	-324.57086	1240.05457	-932.95776	-445.13779	1402.34668	-850.64050	-398.92545	1220.23193	-852.81500	-377.95587	1070.86890	-821.56323	-406.60922	961.94086	-831.10352	-478.76788	840.74756	-809.67847	-422.32193	840.92706	-796.73376	-465.05838	766.93707	-1243.19177	-464.80884	1393.98462	-1349.31042	-418.23309	1194.02319	-1354.98401	-426.68802	1069.29321	-1387.71753	-468.93839	956.84943	-1371.11792	-564.74042	852.19049	-1410.27783	-521.03558	847.49860	-1407.52942	-568.38391	774.35052	-982.60266	-495.12277	934.00140	-1198.89368	-510.48950	932.38220	-1043.85828	-313.84280	945.92181	-1188.66528	-323.41003	950.81982	-915.02106	-546.32654	618.17273	-929.54504	-568.63074	485.70743	-925.80634	-489.77328	314.64413	-978.17462	-433.32806	103.86456	-1040.63550	-398.43860	72.51196	-940.13177	-560.76782	54.39521	-1242.56042	-453.94781	598.32953	-1210.97778	-459.33499	440.10690	-1214.40369	-396.27094	274.24026	-1156.16003	-354.63196	74.79015	-1107.38940	-301.75482	40.20991	-1148.17017	-493.96088	33.29606	-1106.99561	-582.83337	1696.92944	-3102.32910	1973.01624	1024.12183	-3138.64966	2013.04919	1022.26038						 
202	2.010	-1021.10089	-553.62390	1661.50305	-1125.02490	-601.23083	1660.91943	-1067.06653	-438.74924	1637.74658	-1177.26648	-486.72684	1637.53003	-1101.56995	-384.55334	1436.52661	-1105.24207	-341.66876	1142.62231	-1087.98181	-526.27734	1365.63147	-1077.58325	-566.77631	1210.42163	-1180.77698	-331.58130	1240.16467	-932.83398	-451.84604	1401.90918	-851.06006	-404.56445	1219.76294	-853.33167	-382.85486	1070.41992	-822.22681	-410.75607	961.45929	-831.91425	-482.03061	839.71680	-810.42218	-425.55701	840.35516	-797.49628	-467.71671	766.05524	-1243.04810	-472.05515	1393.95593	-1349.60767	-426.16425	1194.20703	-1355.73706	-434.86203	1069.48096	-1388.48157	-478.26096	957.40991	-1371.80127	-575.05505	853.70447	-1410.84009	-531.46667	848.43518	-1408.27222	-579.62885	775.98529	-982.41663	-502.31461	934.08179	-1199.07813	-516.78235	931.99908	-1043.80701	-320.40683	945.83954	-1188.65259	-329.62891	950.67029	-915.00769	-553.32867	618.55524	-930.05811	-576.48236	486.20660	-926.05743	-504.27365	312.29849	-978.28369	-456.82156	99.02352	-1041.06116	-422.99127	66.79971	-940.95959	-585.99005	54.37552	-1242.44446	-457.98740	598.02686	-1211.00757	-461.86548	439.90121	-1214.36133	-397.76312	274.22202	-1156.04907	-354.86856	75.05182	-1107.24719	-302.17593	40.82246	-1148.15076	-494.04953	33.19494	-1106.12207	-589.98456	1696.87695	-3102.44775	1972.96521	1024.10107	-3138.70483	2012.97644	1022.05267						 
203	2.020	-1020.35919	-560.44794	1661.16101	-1124.03711	-608.33118	1660.73999	-1066.63684	-445.66150	1637.46106	-1176.67993	-494.00333	1637.47217	-1101.15820	-391.30942	1436.23779	-1105.46521	-348.41840	1142.55090	-1087.71167	-533.36371	1365.33960	-1077.54065	-573.53662	1210.15369	-1181.12390	-338.51138	1240.19409	-932.67322	-458.43011	1401.43652	-851.25354	-410.13889	1219.28845	-853.75555	-387.94421	1070.22913	-822.85132	-415.05420	960.92224	-832.66064	-485.31464	838.69415	-811.24835	-428.88104	839.68256	-798.29248	-470.49979	765.16833	-1242.88330	-479.25583	1393.96570	-1349.93982	-434.01782	1194.38110	-1356.39978	-442.98477	1069.64502	-1389.06470	-487.51205	957.94641	-1372.34460	-585.24786	855.20581	-1411.55945	-541.74365	849.51044	-1408.98608	-590.69421	777.63123	-983.15735	-507.51151	933.79486	-1199.38403	-523.36279	931.64740	-1043.69690	-326.89838	945.68970	-1188.42017	-336.01773	950.37494	-914.94214	-559.89221	618.68286	-930.43610	-584.20605	486.56570	-926.33020	-518.82092	309.95956	-978.50244	-480.00653	95.10226	-1041.43933	-447.25040	61.85376	-941.83832	-611.01282	54.36464	-1242.22485	-462.08057	597.73468	-1210.96350	-464.36853	439.43857	-1214.24023	-399.16812	274.34802	-1156.02893	-355.13626	75.35981	-1106.78625	-302.14050	41.24684	-1148.17017	-494.27960	33.32827	-1105.11743	-596.98621	1696.64124	-3102.74463	1972.86462	1023.97223	-3138.47485	2013.11963	1022.36786						 
204	2.030	-1019.43311	-567.18396	1660.80676	-1123.06665	-615.34235	1660.59924	-1066.03906	-452.53653	1637.02588	-1176.07129	-501.23016	1637.26782	-1100.52124	-398.55115	1435.98462	-1105.58569	-355.16141	1142.42139	-1087.39380	-540.17157	1365.06519	-1077.45178	-580.38782	1209.83728	-1181.26379	-345.51773	1240.11804	-932.46503	-465.03888	1400.97766	-851.47980	-415.82092	1218.78638	-854.22583	-392.99936	1069.88928	-823.40582	-419.41223	960.44275	-833.26233	-488.77420	837.67755	-811.89941	-432.32562	839.08368	-798.83459	-473.42490	764.46741	-1242.54968	-486.41458	1393.91492	-1350.39160	-441.85208	1194.63416	-1356.97449	-451.11191	1069.75586	-1389.71887	-496.61804	958.43463	-1372.77979	-595.31647	856.62830	-1411.50525	-551.82898	850.22003	-1409.58984	-601.63702	779.23071	-981.95276	-516.86450	934.49823	-1199.40857	-529.52637	931.17200	-1043.53979	-333.51450	945.54022	-1188.24182	-342.41257	950.23553	-914.81964	-566.25702	618.63110	-930.80707	-591.75702	486.70490	-926.56671	-533.34235	307.81958	-978.62677	-502.83661	91.25262	-1041.53125	-470.97195	57.38189	-942.87415	-635.62457	54.64539	-1242.28796	-466.14883	597.52094	-1210.95288	-467.00540	439.16272	-1214.28015	-400.62119	274.59048	-1155.93994	-355.36176	75.70580	-1106.85242	-302.36142	41.91031	-1148.15564	-494.35721	33.31252	-1104.00708	-603.94855	1696.44897	-3103.07397	1972.73315	1024.64136	-3138.47339	2013.01599	1022.31207						 
205	2.040	-1018.47888	-573.80963	1660.40845	-1121.91223	-622.31824	1660.36841	-1065.47815	-459.37250	1636.61255	-1175.30774	-508.41849	1637.07996	-1100.53174	-405.67056	1435.79443	-1105.54895	-362.01617	1142.18689	-1086.99402	-547.18103	1364.69373	-1077.26746	-587.16180	1209.41772	-1181.35632	-352.48370	1240.02710	-932.11438	-471.70685	1400.48560	-851.56482	-421.53967	1218.30420	-854.61127	-398.33139	1069.49036	-823.91388	-423.84668	959.91748	-833.87665	-492.43301	836.70013	-812.50385	-435.99133	838.51013	-799.61163	-476.40662	763.39398	-1242.19409	-493.55078	1393.76672	-1350.65527	-449.80722	1194.70398	-1357.42590	-459.15210	1069.86780	-1390.13867	-505.70822	958.85736	-1373.07593	-605.21289	857.97089	-1412.30713	-562.01794	851.56873	-1410.04065	-612.47308	780.73767	-982.03931	-522.94965	934.50836	-1199.54150	-535.94934	930.69543	-1043.38330	-340.17032	945.40332	-1187.98071	-348.94717	949.99890	-914.62946	-572.45117	618.34430	-931.23407	-599.11597	486.57782	-926.79211	-547.74622	305.86136	-978.75031	-525.72089	88.41373	-1041.10791	-493.94736	53.84610	-943.70905	-659.61407	54.95190	-1242.19849	-470.23392	597.29315	-1210.87622	-469.51132	438.78372	-1214.26831	-402.11142	274.72433	-1155.88489	-355.58777	76.04514	-1107.05774	-302.56619	42.59963	-1148.16040	-494.46902	33.24934	-1103.01941	-611.04852	1696.30200	-3102.34570	1973.03918	1023.98199	-3138.42236	2013.06409	1022.26959						 
206	2.050	-1017.61676	-580.39404	1659.91077	-1120.79858	-629.26965	1660.12720	-1064.98804	-466.12762	1636.27197	-1174.58679	-515.54126	1636.78052	-1100.35400	-412.60019	1435.62976	-1105.39648	-368.83820	1141.91919	-1086.56567	-554.29199	1364.32239	-1077.00391	-593.94330	1208.96802	-1181.30481	-359.45142	1239.81140	-931.75134	-478.40958	1399.93982	-851.55212	-427.32236	1217.74353	-854.95709	-403.99164	1069.15906	-824.30334	-428.53143	959.36316	-834.30103	-496.26624	835.73529	-813.08752	-439.78070	837.79028	-800.02399	-479.60760	762.69220	-1241.72278	-500.67401	1393.63721	-1350.71484	-457.65268	1194.72253	-1357.80920	-467.14258	1069.92615	-1390.38684	-514.70062	959.29077	-1373.24390	-615.03119	859.23175	-1412.52771	-571.88660	852.30530	-1410.42798	-623.05579	782.17059	-982.06110	-529.49414	934.20087	-1199.59644	-542.45361	930.20532	-1043.18286	-346.85806	945.26495	-1187.72070	-355.47293	949.85669	-914.39392	-578.39868	617.89423	-931.69965	-606.18756	486.28510	-926.76813	-561.48364	304.12173	-978.72882	-548.06689	85.78242	-1041.04065	-517.12952	50.76699	-944.49066	-683.16180	55.40513	-1242.18335	-474.34503	597.12573	-1210.96240	-472.18112	438.54831	-1214.30310	-403.61160	274.98471	-1155.82983	-355.92532	76.37304	-1107.02490	-302.66135	43.21733	-1148.22119	-494.52377	33.23347	-1101.75745	-617.76837	1696.01770	-3102.19189	1973.07703	1024.10767	-3138.55225	2013.11499	1022.26685						 
